<svg width="44" height="44" viewBox="0 0 44 44" fill="none" xmlns="http://www.w3.org/2000/svg">
<g clip-path="url(#clip0_31_18)">
<path d="M22 41.25C16.8946 41.25 11.9983 39.2219 8.38819 35.6118C4.77812 32.0017 2.75 27.1054 2.75 22C2.75 16.8946 4.77812 11.9983 8.38819 8.38819C11.9983 4.77812 16.8946 2.75 22 2.75C27.1054 2.75 32.0017 4.77812 35.6118 8.38819C39.2219 11.9983 41.25 16.8946 41.25 22C41.25 27.1054 39.2219 32.0017 35.6118 35.6118C32.0017 39.2219 27.1054 41.25 22 41.25ZM22 44C27.8348 44 33.4305 41.6822 37.5564 37.5564C41.6822 33.4305 44 27.8348 44 22C44 16.1652 41.6822 10.5695 37.5564 6.44365C33.4305 2.31785 27.8348 0 22 0C16.1652 0 10.5695 2.31785 6.44365 6.44365C2.31785 10.5695 0 16.1652 0 22C0 27.8348 2.31785 33.4305 6.44365 37.5564C10.5695 41.6822 16.1652 44 22 44Z" fill="currentColor" fill-opacity="0.9"/>
<path d="M17.2453 13.9012C17.4702 13.7854 17.7227 13.7339 17.9749 13.7523C18.2272 13.7708 18.4696 13.8585 18.6753 14.0057L26.125 19.327V15.125C26.125 14.7603 26.2699 14.4106 26.5277 14.1527C26.7856 13.8949 27.1353 13.75 27.5 13.75C27.8647 13.75 28.2144 13.8949 28.4723 14.1527C28.7301 14.4106 28.875 14.7603 28.875 15.125V28.875C28.875 29.2397 28.7301 29.5894 28.4723 29.8473C28.2144 30.1051 27.8647 30.25 27.5 30.25C27.1353 30.25 26.7856 30.1051 26.5277 29.8473C26.2699 29.5894 26.125 29.2397 26.125 28.875V24.673L18.6725 29.9942C18.4669 30.1406 18.225 30.2276 17.9732 30.2456C17.7215 30.2637 17.4696 30.2121 17.2453 30.0965C17.0209 29.9809 16.8327 29.8058 16.7012 29.5903C16.5698 29.3749 16.5002 29.1274 16.5 28.875V15.125C16.4997 14.8722 16.5692 14.6243 16.7006 14.4084C16.8321 14.1925 17.0205 14.017 17.2453 13.9012Z" fill="currentColor" fill-opacity="0.9"/>
</g>
<defs>
<clipPath id="clip0_31_18">
<rect width="44" height="44" fill="currentColor"/>
</clipPath>
</defs>
</svg>