<svg width="71" height="70" viewBox="0 0 71 70" fill="none" xmlns="http://www.w3.org/2000/svg">
<path d="M70.25 35C70.25 44.2826 66.5625 53.185 59.9987 59.7487C53.435 66.3125 44.5326 70 35.25 70C25.9674 70 17.065 66.3125 10.5013 59.7487C3.93749 53.185 0.25 44.2826 0.25 35C0.25 25.7174 3.93749 16.815 10.5013 10.2513C17.065 3.68749 25.9674 0 35.25 0C44.5326 0 53.435 3.68749 59.9987 10.2513C66.5625 16.815 70.25 25.7174 70.25 35ZM27.5938 21.875C24.575 21.875 22.125 24.325 22.125 27.3438V42.6562C22.125 44.1067 22.7012 45.4977 23.7268 46.5232C24.7523 47.5488 26.1433 48.125 27.5938 48.125C29.0442 48.125 30.4352 47.5488 31.4607 46.5232C32.4863 45.4977 33.0625 44.1067 33.0625 42.6562V27.3438C33.0625 24.325 30.6125 21.875 27.5938 21.875ZM42.9062 21.875C39.8875 21.875 37.4375 24.325 37.4375 27.3438V42.6562C37.4375 44.1067 38.0137 45.4977 39.0393 46.5232C40.0648 47.5488 41.4558 48.125 42.9062 48.125C44.3567 48.125 45.7477 47.5488 46.7732 46.5232C47.7988 45.4977 48.375 44.1067 48.375 42.6562V27.3438C48.375 24.325 45.925 21.875 42.9062 21.875Z" fill="currentColor"/>
</svg>
