<svg width="44" height="44" viewBox="0 0 44 44" fill="none" xmlns="http://www.w3.org/2000/svg">
<g clip-path="url(#clip0_31_21)">
<path d="M22 2.75C27.1054 2.75 32.0017 4.77812 35.6118 8.3882C39.2219 11.9983 41.25 16.8946 41.25 22C41.25 27.1054 39.2219 32.0017 35.6118 35.6118C32.0017 39.2219 27.1054 41.25 22 41.25C16.8946 41.25 11.9983 39.2219 8.3882 35.6118C4.77812 32.0017 2.75 27.1054 2.75 22C2.75 16.8946 4.77812 11.9983 8.3882 8.3882C11.9983 4.77812 16.8946 2.75 22 2.75ZM22 0C16.1652 0 10.5695 2.31785 6.44365 6.44365C2.31785 10.5695 0 16.1652 0 22C0 27.8348 2.31785 33.4305 6.44365 37.5563C10.5695 41.6821 16.1652 44 22 44C27.8348 44 33.4305 41.6821 37.5563 37.5563C41.6821 33.4305 44 27.8348 44 22C44 16.1652 41.6821 10.5695 37.5563 6.44365C33.4305 2.31785 27.8348 0 22 0Z" fill="currentColor" fill-opacity="0.9"/>
<path d="M26.7547 30.0988C26.5298 30.2146 26.2773 30.2661 26.0251 30.2477C25.7728 30.2292 25.5304 30.1415 25.3247 29.9943L17.875 24.673V28.875C17.875 29.2397 17.7301 29.5894 17.4723 29.8473C17.2144 30.1051 16.8647 30.25 16.5 30.25C16.1353 30.25 15.7856 30.1051 15.5277 29.8473C15.2699 29.5894 15.125 29.2397 15.125 28.875V15.125C15.125 14.7603 15.2699 14.4106 15.5277 14.1527C15.7856 13.8949 16.1353 13.75 16.5 13.75C16.8647 13.75 17.2144 13.8949 17.4723 14.1527C17.7301 14.4106 17.875 14.7603 17.875 15.125V19.327L25.3275 14.0058C25.5331 13.8594 25.775 13.7724 26.0268 13.7544C26.2785 13.7363 26.5304 13.7879 26.7547 13.9035C26.9791 14.0191 27.1673 14.1942 27.2988 14.4097C27.4302 14.6251 27.4998 14.8726 27.5 15.125V28.875C27.5003 29.1278 27.4308 29.3757 27.2994 29.5916C27.1679 29.8075 26.9795 29.983 26.7547 30.0988Z" fill="currentColor" fill-opacity="0.9"/>
</g>
<defs>
<clipPath id="clip0_31_21">
<rect width="44" height="44" fill="currentColor" transform="matrix(-1 0 0 -1 44 44)"/>
</clipPath>
</defs>
</svg>
